HIERARCHY
ROOT root
{
	OFFSET 0.000000 0.000642 0.045086
	CHANNELS 6 Xposition Yposition Zposition Xrotation Yrotation Zrotation
	JOINT pelvis
	{
		OFFSET -0.002936 0.026773 0.927670
		CHANNELS 6 Xposition Yposition Zposition Xrotation Yrotation Zrotation
		JOINT thigh_R
		{
			OFFSET -0.109487 -0.026910 -0.119863
			CHANNELS 6 Xposition Yposition Zposition Xrotation Yrotation Zrotation
			JOINT calf_R
			{
				OFFSET -0.031978 -0.023263 -0.393771
				CHANNELS 3 Xrotation Yrotation Zrotation
				JOINT foot_R
				{
					OFFSET -0.052496 0.000902 -0.370102
					CHANNELS 3 Xrotation Yrotation Zrotation
					JOINT toes_R
					{
						OFFSET -0.009320 -0.126011 -0.069821
						CHANNELS 6 Xposition Yposition Zposition Xrotation Yrotation Zrotation
						End Site
						{
							OFFSET -0.004473 -0.046724 -0.003049
						}
					}
				}
				JOINT calf_twist_R
				{
					OFFSET 0.000000 0.000000 0.000000
					CHANNELS 6 Xposition Yposition Zposition Xrotation Yrotation Zrotation
					End Site
					{
						OFFSET -0.038816 0.005263 -0.254563
					}
				}
			}
			JOINT thigh_twist_R
			{
				OFFSET 0.000000 -0.000000 0.000000
				CHANNELS 6 Xposition Yposition Zposition Xrotation Yrotation Zrotation
				End Site
				{
					OFFSET -0.013447 -0.026672 -0.173442
				}
			}
		}
		JOINT thigh_L
		{
			OFFSET 0.115359 -0.026910 -0.119863
			CHANNELS 6 Xposition Yposition Zposition Xrotation Yrotation Zrotation
			JOINT calf_L
			{
				OFFSET 0.031978 -0.023263 -0.393771
				CHANNELS 3 Xrotation Yrotation Zrotation
				JOINT foot_L
				{
					OFFSET 0.052496 0.000902 -0.370102
					CHANNELS 3 Xrotation Yrotation Zrotation
					JOINT toes_L
					{
						OFFSET 0.009320 -0.126011 -0.069821
						CHANNELS 3 Xrotation Yrotation Zrotation
						End Site
						{
							OFFSET 0.004473 -0.046724 -0.003049
						}
					}
				}
				JOINT calf_twist_L
				{
					OFFSET 0.000000 0.000000 0.000000
					CHANNELS 6 Xposition Yposition Zposition Xrotation Yrotation Zrotation
					End Site
					{
						OFFSET 0.038816 0.005263 -0.254563
					}
				}
			}
			JOINT thigh_twist_L
			{
				OFFSET 0.000000 0.000000 0.000000
				CHANNELS 6 Xposition Yposition Zposition Xrotation Yrotation Zrotation
				End Site
				{
					OFFSET 0.013447 -0.026672 -0.173442
				}
			}
		}
		JOINT spine01
		{
			OFFSET -0.000052 -0.001333 0.006057
			CHANNELS 3 Xrotation Yrotation Zrotation
			JOINT spine02
			{
				OFFSET 0.002988 -0.035069 0.061561
				CHANNELS 3 Xrotation Yrotation Zrotation
				JOINT spine03
				{
					OFFSET 0.000000 0.008649 0.117635
					CHANNELS 3 Xrotation Yrotation Zrotation
					JOINT clavicle_L
					{
						OFFSET 0.031960 -0.002455 0.159580
						CHANNELS 6 Xposition Yposition Zposition Xrotation Yrotation Zrotation
						JOINT upperarm_L
						{
							OFFSET 0.106613 -0.013377 -0.022582
							CHANNELS 6 Xposition Yposition Zposition Xrotation Yrotation Zrotation
							JOINT lowerarm_L
							{
								OFFSET 0.233664 0.021966 -0.134813
								CHANNELS 3 Xrotation Yrotation Zrotation
								JOINT hand_L
								{
									OFFSET 0.202817 -0.038212 -0.103702
									CHANNELS 3 Xrotation Yrotation Zrotation
									JOINT thumb01_L
									{
										OFFSET 0.008269 -0.017364 -0.009129
										CHANNELS 6 Xposition Yposition Zposition Xrotation Yrotation Zrotation
										JOINT thumb02_L
										{
											OFFSET 0.007103 -0.025549 -0.027526
											CHANNELS 3 Xrotation Yrotation Zrotation
											JOINT thumb03_L
											{
												OFFSET 0.011035 -0.026258 -0.014218
												CHANNELS 3 Xrotation Yrotation Zrotation
												End Site
												{
													OFFSET 0.008927 -0.014147 -0.017737
												}
											}
										}
									}
									JOINT index00_L
									{
										OFFSET 0.015790 -0.019369 -0.010869
										CHANNELS 6 Xposition Yposition Zposition Xrotation Yrotation Zrotation
										JOINT index01_L
										{
											OFFSET 0.047864 -0.007217 -0.023292
											CHANNELS 3 Xrotation Yrotation Zrotation
											JOINT index02_L
											{
												OFFSET 0.026189 -0.000355 -0.020650
												CHANNELS 3 Xrotation Yrotation Zrotation
												JOINT index03_L
												{
													OFFSET 0.017813 0.001193 -0.013583
													CHANNELS 3 Xrotation Yrotation Zrotation
													End Site
													{
														OFFSET 0.013377 0.001373 -0.016250
													}
												}
											}
										}
									}
									JOINT middle00_L
									{
										OFFSET 0.016276 -0.006169 -0.012863
										CHANNELS 6 Xposition Yposition Zposition Xrotation Yrotation Zrotation
										JOINT middle01_L
										{
											OFFSET 0.049067 -0.003947 -0.017410
											CHANNELS 3 Xrotation Yrotation Zrotation
											JOINT middle02_L
											{
												OFFSET 0.029087 0.000312 -0.026941
												CHANNELS 3 Xrotation Yrotation Zrotation
												JOINT middle03_L
												{
													OFFSET 0.019190 0.000267 -0.015543
													CHANNELS 3 Xrotation Yrotation Zrotation
													End Site
													{
														OFFSET 0.014683 0.000017 -0.017510
													}
												}
											}
										}
									}
									JOINT ring00_L
									{
										OFFSET 0.017106 0.003470 -0.011997
										CHANNELS 6 Xposition Yposition Zposition Xrotation Yrotation Zrotation
										JOINT ring01_L
										{
											OFFSET 0.044984 0.002116 -0.016733
											CHANNELS 3 Xrotation Yrotation Zrotation
											JOINT ring02_L
											{
												OFFSET 0.028856 0.000400 -0.026983
												CHANNELS 3 Xrotation Yrotation Zrotation
												JOINT ring03_L
												{
													OFFSET 0.017620 0.000363 -0.013833
													CHANNELS 3 Xrotation Yrotation Zrotation
													End Site
													{
														OFFSET 0.015507 -0.000807 -0.015547
													}
												}
											}
										}
									}
									JOINT pinky00_L
									{
										OFFSET 0.014366 0.020048 -0.015014
										CHANNELS 6 Xposition Yposition Zposition Xrotation Yrotation Zrotation
										JOINT pinky01_L
										{
											OFFSET 0.041296 0.001442 -0.016227
											CHANNELS 3 Xrotation Yrotation Zrotation
											JOINT pinky02_L
											{
												OFFSET 0.024951 -0.000301 -0.020450
												CHANNELS 3 Xrotation Yrotation Zrotation
												JOINT pinky03_L
												{
													OFFSET 0.013007 -0.001157 -0.010280
													CHANNELS 3 Xrotation Yrotation Zrotation
													End Site
													{
														OFFSET 0.009963 -0.001160 -0.011403
													}
												}
											}
										}
									}
								}
								JOINT lowerarm_twist_L
								{
									OFFSET 0.000000 -0.000000 0.000000
									CHANNELS 6 Xposition Yposition Zposition Xrotation Yrotation Zrotation
									End Site
									{
										OFFSET 0.113147 -0.023106 -0.058600
									}
								}
							}
							JOINT upperarm_twist_L
							{
								OFFSET 0.000000 0.000000 0.000000
								CHANNELS 6 Xposition Yposition Zposition Xrotation Yrotation Zrotation
								End Site
								{
									OFFSET 0.131225 0.003005 -0.082365
								}
							}
						}
					}
					JOINT clavicle_R
					{
						OFFSET -0.031960 -0.002455 0.159580
						CHANNELS 6 Xposition Yposition Zposition Xrotation Yrotation Zrotation
						JOINT upperarm_R
						{
							OFFSET -0.106613 -0.013377 -0.022582
							CHANNELS 6 Xposition Yposition Zposition Xrotation Yrotation Zrotation
							JOINT lowerarm_R
							{
								OFFSET -0.233664 0.021966 -0.134813
								CHANNELS 3 Xrotation Yrotation Zrotation
								JOINT hand_R
								{
									OFFSET -0.202817 -0.038212 -0.103702
									CHANNELS 3 Xrotation Yrotation Zrotation
									JOINT thumb01_R
									{
										OFFSET -0.008269 -0.017364 -0.009129
										CHANNELS 6 Xposition Yposition Zposition Xrotation Yrotation Zrotation
										JOINT thumb02_R
										{
											OFFSET -0.007103 -0.025549 -0.027526
											CHANNELS 3 Xrotation Yrotation Zrotation
											JOINT thumb03_R
											{
												OFFSET -0.011035 -0.026258 -0.014218
												CHANNELS 3 Xrotation Yrotation Zrotation
												End Site
												{
													OFFSET -0.008927 -0.014147 -0.017737
												}
											}
										}
									}
									JOINT index00_R
									{
										OFFSET -0.015790 -0.019369 -0.010869
										CHANNELS 6 Xposition Yposition Zposition Xrotation Yrotation Zrotation
										JOINT index01_R
										{
											OFFSET -0.047864 -0.007217 -0.023292
											CHANNELS 3 Xrotation Yrotation Zrotation
											JOINT index02_R
											{
												OFFSET -0.026189 -0.000355 -0.020650
												CHANNELS 3 Xrotation Yrotation Zrotation
												JOINT index03_R
												{
													OFFSET -0.017813 0.001193 -0.013583
													CHANNELS 3 Xrotation Yrotation Zrotation
													End Site
													{
														OFFSET -0.013377 0.001373 -0.016250
													}
												}
											}
										}
									}
									JOINT middle00_R
									{
										OFFSET -0.016276 -0.006169 -0.012863
										CHANNELS 6 Xposition Yposition Zposition Xrotation Yrotation Zrotation
										JOINT middle01_R
										{
											OFFSET -0.049067 -0.003947 -0.017410
											CHANNELS 3 Xrotation Yrotation Zrotation
											JOINT middle02_R
											{
												OFFSET -0.029087 0.000312 -0.026941
												CHANNELS 3 Xrotation Yrotation Zrotation
												JOINT middle03_R
												{
													OFFSET -0.019190 0.000267 -0.015543
													CHANNELS 3 Xrotation Yrotation Zrotation
													End Site
													{
														OFFSET -0.014683 0.000017 -0.017510
													}
												}
											}
										}
									}
									JOINT ring00_R
									{
										OFFSET -0.017106 0.003470 -0.011997
										CHANNELS 6 Xposition Yposition Zposition Xrotation Yrotation Zrotation
										JOINT ring01_R
										{
											OFFSET -0.044984 0.002116 -0.016733
											CHANNELS 3 Xrotation Yrotation Zrotation
											JOINT ring02_R
											{
												OFFSET -0.028856 0.000400 -0.026983
												CHANNELS 3 Xrotation Yrotation Zrotation
												JOINT ring03_R
												{
													OFFSET -0.017620 0.000363 -0.013833
													CHANNELS 3 Xrotation Yrotation Zrotation
													End Site
													{
														OFFSET -0.015507 -0.000807 -0.015547
													}
												}
											}
										}
									}
									JOINT pinky00_R
									{
										OFFSET -0.014366 0.020048 -0.015014
										CHANNELS 6 Xposition Yposition Zposition Xrotation Yrotation Zrotation
										JOINT pinky01_R
										{
											OFFSET -0.041296 0.001442 -0.016227
											CHANNELS 3 Xrotation Yrotation Zrotation
											JOINT pinky02_R
											{
												OFFSET -0.024951 -0.000301 -0.020450
												CHANNELS 3 Xrotation Yrotation Zrotation
												JOINT pinky03_R
												{
													OFFSET -0.013007 -0.001157 -0.010280
													CHANNELS 3 Xrotation Yrotation Zrotation
													End Site
													{
														OFFSET -0.009963 -0.001160 -0.011403
													}
												}
											}
										}
									}
								}
								JOINT lowerarm_twist_R
								{
									OFFSET 0.000000 0.000000 0.000000
									CHANNELS 6 Xposition Yposition Zposition Xrotation Yrotation Zrotation
									End Site
									{
										OFFSET -0.113147 -0.023106 -0.058600
									}
								}
							}
							JOINT upperarm_twist_R
							{
								OFFSET 0.000000 0.000000 0.000000
								CHANNELS 6 Xposition Yposition Zposition Xrotation Yrotation Zrotation
								End Site
								{
									OFFSET -0.131225 0.003005 -0.082365
								}
							}
						}
					}
					JOINT neck
					{
						OFFSET -0.000000 -0.002726 0.194733
						CHANNELS 6 Xposition Yposition Zposition Xrotation Yrotation Zrotation
						JOINT head
						{
							OFFSET 0.000000 -0.047407 0.104388
							CHANNELS 3 Xrotation Yrotation Zrotation
							End Site
							{
								OFFSET -0.000000 -0.000839 0.155358
							}
						}
					}
					JOINT breast_L
					{
						OFFSET 0.075423 -0.033073 0.045626
						CHANNELS 6 Xposition Yposition Zposition Xrotation Yrotation Zrotation
						End Site
						{
							OFFSET 0.027052 -0.131754 -0.030994
						}
					}
					JOINT breast_R
					{
						OFFSET -0.075423 -0.033073 0.045626
						CHANNELS 6 Xposition Yposition Zposition Xrotation Yrotation Zrotation
						End Site
						{
							OFFSET -0.027052 -0.131754 -0.030994
						}
					}
				}
			}
		}
	}
}
MOTION
Frames: 4
Frame Time: 0.041667
0.000000 0.000642 0.045086 0.000000 0.000000 0.000000 0.910151 -1.316884 0.783068 0.000250 0.000001 -0.000005 -0.109487 -0.026910 -0.119863 15.708090 -6.181615 -0.960305 -3.581915 -3.436570 -0.442755 -17.631088 -11.120931 -1.626052 -0.009320 -0.126011 -0.069821 14.375016 -1.550606 5.422360 0.000000 -0.000000 -0.000000 0.000002 -0.000001 -0.000001 0.000000 0.000000 0.000000 0.000000 0.000004 -0.000000 0.115359 -0.026910 -0.119864 15.695331 5.220473 0.998904 -3.583434 3.436072 0.453831 -18.159772 11.738822 2.486512 14.711246 1.682303 -5.473959 0.000000 -0.000000 -0.000000 -0.000000 -0.000003 -0.000000 -0.000000 0.000000 -0.000000 0.000002 -0.000002 -0.000000 -22.668189 -2.335640 -0.190982 -0.000000 0.000000 -0.000000 -0.000004 -0.000000 -0.000000 0.031960 -0.002455 0.159581 -0.000005 -0.000006 -0.000006 0.106614 -0.013377 -0.022582 22.422708 -20.360546 -4.023416 5.780965 3.572372 12.630434 -1.993522 -5.803208 -4.810892 0.008269 -0.017364 -0.009129 0.000923 -0.000070 -0.000380 -0.000307 -0.000114 0.000235 -23.398435 -0.889286 10.348087 0.015791 -0.019370 -0.010870 -0.000006 -0.000022 -0.000003 -0.000179 0.014386 -0.000342 -4.033915 -4.215169 -6.828803 0.761350 -13.074685 -1.813732 0.016274 -0.006169 -0.012863 0.000004 0.000011 -0.000002 -0.000646 0.015499 -0.000432 -0.000114 0.033338 0.000383 0.000283 0.071439 0.000418 0.017107 0.003471 -0.011996 -0.000005 -0.000018 -0.000001 -0.000005 0.017525 0.000236 -0.000667 0.031913 0.000153 0.000755 0.091896 -0.004035 0.014367 0.020048 -0.015014 -0.000001 -0.000002 -0.000001 0.000248 0.017960 -0.000006 0.001923 0.039137 -0.002048 0.005972 0.104260 -0.005367 0.000000 -0.000000 -0.000000 -0.000020 0.000672 0.000309 0.000000 0.000000 0.000001 -0.000006 0.001368 -0.000065 -0.031960 -0.002455 0.159580 -0.000003 0.000015 -0.000007 -0.106613 -0.013377 -0.022581 22.674657 23.786610 2.715763 5.812242 -3.574189 -12.612923 -2.033177 5.795710 4.789199 -0.008269 -0.017364 -0.009130 0.001372 -0.000757 0.000195 -0.000074 -0.000411 0.000096 -22.952250 1.111181 -9.846988 -0.015791 -0.019369 -0.010870 -0.000005 0.000011 -0.000000 -0.000143 -0.013014 0.000295 -4.059745 4.224512 6.808913 0.720652 13.110236 1.764616 -0.016274 -0.006169 -0.012862 0.000001 0.000005 -0.000001 -0.000567 -0.013608 0.000377 -0.001185 -0.011791 0.000789 0.000542 -0.020176 -0.000671 -0.017107 0.003471 -0.011997 -0.000000 0.000002 0.000001 -0.000716 -0.016761 0.000436 -0.000647 -0.015893 0.000170 -0.000128 -0.042074 0.002319 -0.014367 0.020048 -0.015014 0.000001 0.000000 -0.000002 -0.000989 -0.017901 0.001032 0.000527 -0.022085 0.001599 0.000328 -0.056885 0.006361 -0.000000 -0.000001 -0.000001 0.000004 -0.000004 0.000006 0.000001 -0.000000 0.000000 -0.000001 -0.000080 -0.000001 0.000000 -0.002726 0.194733 11.600823 4.950929 0.942665 10.997266 0.064075 0.225710 0.075423 -0.033073 0.045626 0.000424 0.000107 -0.000167 -0.075423 -0.033073 0.045626 0.000450 -0.000111 0.000180 
0.000000 0.000642 0.045086 0.000000 0.000000 0.000000 0.910151 -1.316884 0.783068 0.000250 0.000001 -0.000005 -0.109487 -0.026910 -0.119863 15.708090 -6.181615 -0.960305 -3.581915 -3.436570 -0.442755 -17.631088 -11.120931 -1.626052 -0.009320 -0.126011 -0.069821 14.375016 -1.550606 5.422360 0.000000 -0.000000 -0.000000 0.000002 -0.000001 -0.000001 0.000000 0.000000 0.000000 0.000000 0.000004 -0.000000 0.115359 -0.026910 -0.119864 15.695331 5.220473 0.998904 -3.583434 3.436072 0.453831 -18.159772 11.738822 2.486512 14.711246 1.682303 -5.473959 0.000000 -0.000000 -0.000000 -0.000000 -0.000003 -0.000000 -0.000000 0.000000 -0.000000 0.000002 -0.000002 -0.000000 -22.668189 -2.335640 -0.190982 -0.000000 0.000000 -0.000000 -0.000004 -0.000000 -0.000000 0.031960 -0.002455 0.159581 -0.000005 -0.000006 -0.000006 0.106614 -0.013377 -0.022582 22.422708 -20.360546 -4.023416 5.780965 3.572372 12.630434 -1.993522 -5.803208 -4.810892 0.008269 -0.017364 -0.009129 0.000923 -0.000070 -0.000380 -0.000307 -0.000114 0.000235 -23.398435 -0.889286 10.348087 0.015791 -0.019370 -0.010870 -0.000006 -0.000022 -0.000003 -0.000179 0.014386 -0.000342 -4.033915 -4.215169 -6.828803 0.761350 -13.074685 -1.813732 0.016274 -0.006169 -0.012863 0.000004 0.000011 -0.000002 -0.000646 0.015499 -0.000432 -0.000114 0.033338 0.000383 0.000283 0.071439 0.000418 0.017107 0.003471 -0.011996 -0.000005 -0.000018 -0.000001 -0.000005 0.017525 0.000236 -0.000667 0.031913 0.000153 0.000755 0.091896 -0.004035 0.014367 0.020048 -0.015014 -0.000001 -0.000002 -0.000001 0.000248 0.017960 -0.000006 0.001923 0.039137 -0.002048 0.005972 0.104260 -0.005367 0.000000 -0.000000 -0.000000 -0.000020 0.000672 0.000309 0.000000 0.000000 0.000001 -0.000006 0.001368 -0.000065 -0.031960 -0.002455 0.159580 -0.000003 0.000015 -0.000007 -0.106613 -0.013377 -0.022581 22.674657 23.786610 2.715763 5.812242 -3.574189 -12.612923 -2.033177 5.795710 4.789199 -0.008269 -0.017364 -0.009130 0.001372 -0.000757 0.000195 -0.000074 -0.000411 0.000096 -22.952250 1.111181 -9.846988 -0.015791 -0.019369 -0.010870 -0.000005 0.000011 -0.000000 -0.000143 -0.013014 0.000295 -4.059745 4.224512 6.808913 0.720652 13.110236 1.764616 -0.016274 -0.006169 -0.012862 0.000001 0.000005 -0.000001 -0.000567 -0.013608 0.000377 -0.001185 -0.011791 0.000789 0.000542 -0.020176 -0.000671 -0.017107 0.003471 -0.011997 -0.000000 0.000002 0.000001 -0.000716 -0.016761 0.000436 -0.000647 -0.015893 0.000170 -0.000128 -0.042074 0.002319 -0.014367 0.020048 -0.015014 0.000001 0.000000 -0.000002 -0.000989 -0.017901 0.001032 0.000527 -0.022085 0.001599 0.000328 -0.056885 0.006361 -0.000000 -0.000001 -0.000001 0.000004 -0.000004 0.000006 0.000001 -0.000000 0.000000 -0.000001 -0.000080 -0.000001 0.000000 -0.002726 0.194733 11.600823 4.950929 0.942665 10.997266 0.064075 0.225710 0.075423 -0.033073 0.045626 0.000424 0.000107 -0.000167 -0.075423 -0.033073 0.045626 0.000450 -0.000111 0.000180 
0.000000 0.000642 0.045086 0.000000 0.000000 0.000000 0.885988 -1.319514 0.783062 25.665886 3.368405 -100.524040 -0.109487 -0.026910 -0.119863 20.420626 -21.674398 3.174709 16.966093 -3.176311 -2.182800 -39.306076 -9.648745 -3.758413 -0.009320 -0.126011 -0.069821 24.962146 -1.641871 1.715628 0.000000 -0.000000 -0.000000 0.000000 -0.000003 0.000000 0.000000 0.000000 0.000001 0.000005 0.000003 -0.000001 0.115359 -0.026910 -0.119864 -20.686753 -9.048301 -5.199741 36.956169 3.849687 3.752061 -29.671708 11.208650 3.724735 22.094252 1.665712 -2.759998 0.000000 -0.000000 -0.000000 0.000001 -0.000001 0.000000 -0.000000 0.000000 -0.000000 -0.000001 -0.000001 0.000000 -14.779491 -10.805262 -3.026462 2.149836 -4.768784 2.793645 -2.251926 0.045705 0.937413 0.031960 -0.002455 0.159581 -0.000006 -0.000003 -0.000007 0.106614 -0.013377 -0.022582 29.632858 55.860200 9.489485 -4.423738 -4.100461 -5.809393 1.325154 -6.454277 -6.620262 0.008269 -0.017363 -0.009129 0.000920 -0.000072 -0.000377 -0.000303 -0.000115 0.000229 -1.397031 -2.598850 32.685150 0.015791 -0.019369 -0.010870 -0.000006 -0.000021 0.000000 -0.000179 0.014393 -0.000343 -7.879431 -19.306411 -10.724755 1.371910 -6.041044 -0.750054 0.016274 -0.006169 -0.012862 0.000003 0.000009 0.000001 -0.000647 0.015496 -0.000433 -0.000114 0.033342 0.000381 0.000283 0.071442 0.000419 0.017107 0.003471 -0.011996 -0.000008 -0.000020 0.000001 -0.000006 0.017533 0.000234 -0.000668 0.031916 0.000153 0.000755 0.091896 -0.004034 0.014367 0.020048 -0.015015 -0.000004 -0.000002 0.000002 0.000247 0.017959 -0.000005 0.001923 0.039138 -0.002047 0.005973 0.104258 -0.005367 0.000000 -0.000000 -0.000000 -0.000020 0.000677 0.000309 0.000000 0.000000 0.000000 -0.000006 0.001363 -0.000064 -0.031960 -0.002455 0.159580 -0.000001 0.000015 -0.000007 -0.106614 -0.013377 -0.022582 26.159754 -57.467197 -2.044674 -2.802451 3.146408 3.136855 -10.383244 4.638726 0.138906 -0.008269 -0.017364 -0.009130 0.001372 -0.000755 0.000196 -0.000070 -0.000408 0.000098 16.308755 4.847058 -57.083224 -0.015791 -0.019369 -0.010870 -0.000004 0.000011 -0.000002 -0.000144 -0.013015 0.000293 17.188900 22.735227 -15.715002 1.359221 6.082765 0.666063 -0.016274 -0.006169 -0.012862 0.000000 0.000007 -0.000001 -0.000567 -0.013605 0.000379 -0.001184 -0.011791 0.000790 0.000545 -0.020174 -0.000671 -0.017107 0.003471 -0.011996 -0.000001 0.000007 -0.000001 -0.000717 -0.016763 0.000436 -0.000648 -0.015886 0.000169 -0.000128 -0.042077 0.002318 -0.014367 0.020048 -0.015014 0.000002 0.000000 -0.000002 -0.000988 -0.017902 0.001032 0.000526 -0.022087 0.001598 0.000327 -0.056880 0.006361 -0.000001 -0.000000 -0.000000 0.000001 -0.000003 0.000007 0.000001 -0.000000 0.000000 -0.000002 -0.000082 -0.000000 0.000000 -0.002726 0.194733 7.987695 14.292888 -17.156986 2.043088 -3.323241 -5.138460 0.075423 -0.033073 0.045626 0.000427 0.000106 -0.000167 -0.075423 -0.033073 0.045627 0.000450 -0.000111 0.000179 
0.000000 0.000642 0.045086 0.000000 0.000000 0.000000 0.853731 -1.321393 0.782892 25.867221 4.077839 -101.426103 -0.109487 -0.026909 -0.119863 22.821202 -20.870391 5.551201 17.902300 -3.181469 -2.263046 -38.257553 -9.153464 -4.523784 -0.009320 -0.126011 -0.069821 21.998755 -1.547258 2.750903 -0.000000 0.000000 -0.000000 0.000001 -0.000002 0.000003 0.000000 0.000000 0.000000 0.000003 0.000003 0.000002 0.115359 -0.026910 -0.119863 -18.407317 -9.175876 -3.109395 37.714075 3.885417 3.806114 -29.667835 11.466658 3.258904 23.822638 1.712318 -2.125777 0.000000 -0.000000 -0.000000 0.000000 -0.000003 0.000001 -0.000000 0.000000 -0.000000 -0.000003 -0.000001 -0.000001 -14.207939 -10.978662 -2.699882 2.202116 -4.890652 3.237299 -2.482019 -0.044923 1.135988 0.031960 -0.002455 0.159581 -0.000007 -0.000004 -0.000006 0.106614 -0.013377 -0.022582 29.843576 56.000089 11.571281 -4.914199 -4.351943 -6.631453 0.163021 -6.214059 -5.989719 0.008269 -0.017364 -0.009129 0.000919 -0.000068 -0.000380 -0.000303 -0.000113 0.000235 -0.813817 -1.237524 32.663256 0.015791 -0.019369 -0.010870 -0.000007 -0.000019 -0.000001 -0.000180 0.014384 -0.000342 -7.415257 -17.864978 -10.263827 1.371907 -6.041049 -0.750057 0.016274 -0.006169 -0.012862 0.000004 0.000014 0.000000 -0.000646 0.015494 -0.000431 -0.000112 0.033335 0.000383 0.000283 0.071439 0.000419 0.017107 0.003471 -0.011996 -0.000005 -0.000016 -0.000001 -0.000005 0.017527 0.000235 -0.000666 0.031913 0.000153 0.000755 0.091896 -0.004034 0.014367 0.020048 -0.015014 -0.000003 -0.000000 0.000001 0.000247 0.017967 -0.000006 0.001923 0.039138 -0.002048 0.005971 0.104260 -0.005366 0.000000 0.000000 -0.000000 -0.000019 0.000674 0.000308 0.000000 -0.000000 0.000000 -0.000006 0.001364 -0.000066 -0.031960 -0.002455 0.159580 -0.000001 0.000014 -0.000008 -0.106614 -0.013377 -0.022581 21.002285 -56.332651 -9.558378 -2.309369 2.857092 2.290890 -7.241787 4.993453 1.901797 -0.008269 -0.017364 -0.009130 0.001372 -0.000756 0.000200 -0.000071 -0.000412 0.000093 15.904292 16.507258 -56.671808 -0.015791 -0.019369 -0.010870 -0.000005 0.000011 0.000000 -0.000142 -0.013014 0.000297 18.373470 34.481896 -13.542612 1.359217 6.082777 0.666064 -0.016274 -0.006169 -0.012862 0.000001 0.000002 -0.000001 -0.000567 -0.013608 0.000378 -0.001184 -0.011798 0.000791 0.000542 -0.020181 -0.000668 -0.017107 0.003471 -0.011997 -0.000002 0.000006 0.000002 -0.000718 -0.016763 0.000435 -0.000646 -0.015888 0.000171 -0.000129 -0.042074 0.002319 -0.014367 0.020048 -0.015014 0.000001 0.000000 -0.000000 -0.000990 -0.017901 0.001033 0.000528 -0.022090 0.001599 0.000329 -0.056876 0.006360 -0.000000 -0.000000 -0.000000 0.000003 -0.000004 0.000005 0.000001 -0.000000 0.000000 -0.000002 -0.000075 -0.000001 0.000000 -0.002726 0.194733 8.093213 14.023239 -16.807298 2.053550 -3.233013 -5.002631 0.075423 -0.033073 0.045625 0.000424 0.000106 -0.000168 -0.075423 -0.033073 0.045626 0.000449 -0.000111 0.000180 
